<svg width="16" height="16" viewBox="0 0 16 16" fill="none" xmlns="http://www.w3.org/2000/svg">
<g clip-path="url(#clip0_4148_59574)">
<path d="M10.084 1.84103L14.143 5.90003" stroke="white" stroke-linecap="round" stroke-linejoin="round"/>
<path d="M8.492 2.72402C7.27156 2.1936 5.89896 2.12927 4.63426 2.54322C3.36956 2.95717 2.30063 3.82064 1.63 4.97002L3.97001 7.31002" stroke="white" stroke-linecap="round" stroke-linejoin="round"/>
<path d="M13.266 7.47302C13.8065 8.69691 13.8772 10.077 13.4648 11.3497C13.0523 12.6225 12.1856 13.6988 11.03 14.373L8.67999 12.023" stroke="white" stroke-linecap="round" stroke-linejoin="round"/>
<path d="M6.81199 13.049L2.95099 9.18802C2.95099 9.18802 6.24899 0.983023 15.5 0.500023C14.977 9.71102 6.81199 13.049 6.81199 13.049Z" stroke="white" stroke-linecap="round" stroke-linejoin="round"/>
<path d="M3.9 12.1C3.51432 11.7149 2.99155 11.4986 2.4465 11.4986C1.90145 11.4986 1.37868 11.7149 0.993002 12.1C0.293002 12.8 0.0460019 15.013 0.00400191 15.45C-0.00297361 15.5194 0.00464923 15.5895 0.0263805 15.6558C0.0481117 15.7221 0.0834705 15.7831 0.130184 15.8349C0.176898 15.8867 0.233933 15.9281 0.297623 15.9566C0.361314 15.985 0.43025 15.9998 0.500002 16C0.515986 16.001 0.532017 16.001 0.548002 16C0.985002 15.958 3.199 15.71 3.898 15.011C4.28414 14.6252 4.50126 14.1018 4.50164 13.5559C4.50201 13.0101 4.28561 12.4864 3.9 12.1Z" fill="white"/>
<path d="M9 8.00002C9.55228 8.00002 10 7.55231 10 7.00002C10 6.44774 9.55228 6.00002 9 6.00002C8.44772 6.00002 8 6.44774 8 7.00002C8 7.55231 8.44772 8.00002 9 8.00002Z" fill="white"/>
</g>
<defs>
<clipPath id="clip0_4148_59574">
<rect width="16" height="16" fill="white"/>
</clipPath>
</defs>
</svg>
