<svg xmlns="http://www.w3.org/2000/svg" width="48" height="48" viewBox="0 0 48 48" fill="none">
    <rect x="0.5" y="0.5" width="47" height="47" rx="5.5" fill="#121418" stroke="#343843"/>
    <path d="M24 38C31.732 38 38 31.732 38 24C38 16.268 31.732 10 24 10C16.268 10 10 16.268 10 24C10 31.732 16.268 38 24 38Z" fill="#7717FF"/>
    <path d="M14.8747 21.6961C15.1203 20.7365 15.5083 19.8329 16.029 19.0069C16.0984 18.8968 16.0672 18.7515 15.9589 18.6793L12.7988 16.5747C11.2661 18.8635 10.4639 21.6789 10.5493 24.4253L14.3445 24.3156C14.4746 24.3118 14.5779 24.2049 14.5775 24.0747C14.5745 23.2776 14.6744 22.4785 14.8747 21.6959V21.6961Z" fill="white"/>
    <path d="M16.2905 29.8438L13.2583 32.1283C14.9037 34.3254 17.2695 36.0146 19.9217 36.8454L21.0678 33.2262C21.1072 33.1017 21.04 32.969 20.9166 32.9266C19.2269 32.347 17.7313 31.2866 16.6232 29.8867C16.5423 29.7844 16.3946 29.7652 16.2904 29.8437L16.2905 29.8438Z" fill="white"/>
    <path d="M29.4408 31.7058C28.712 32.2223 27.918 32.6316 27.0773 32.9242C26.9542 32.9671 26.8876 33.1001 26.9274 33.2242L28.0867 36.8397C30.7264 35.9961 33.0785 34.3298 34.7442 32.1107L31.7101 29.8284C31.6059 29.7501 31.4585 29.7693 31.3776 29.8715C30.824 30.5703 30.1733 31.1866 29.4408 31.7059V31.7058Z" fill="white"/>
    <path d="M37.2587 21.8163C36.9464 19.9412 36.2241 18.1306 35.1706 16.5564L32.014 18.6654C31.9055 18.7379 31.875 18.8836 31.9448 18.9938C32.8992 20.4983 33.4164 22.2718 33.4086 24.0514C33.408 24.1818 33.5114 24.2889 33.6418 24.2926L37.4367 24.4007C37.4617 23.5343 37.4004 22.6601 37.2589 21.8163H37.2587Z" fill="white"/>
    <path d="M28.7871 11.4668C25.7178 10.29 22.2409 10.2846 19.1766 11.4752L20.5392 15.0184C20.5861 15.1402 20.7214 15.2022 20.8442 15.1582C22.866 14.4327 25.1025 14.4381 27.1335 15.1563C27.2565 15.1998 27.3914 15.1371 27.4378 15.0154L28.7869 11.4668H28.7871Z" fill="white"/>
    <path d="M24 15.9048C25.093 15.9048 26.1531 16.1188 27.1509 16.5408C27.6305 16.7437 28.0932 16.9948 28.526 17.2871C28.9546 17.5768 29.3579 17.9094 29.7242 18.2758C30.0905 18.6421 30.4232 19.0453 30.7128 19.474C31.0053 19.9068 31.2563 20.3694 31.4591 20.849C31.8812 21.8469 32.0952 22.907 32.0952 24C32.0952 25.093 31.8812 26.153 31.4591 27.1509C31.2563 27.6305 31.0051 28.0932 30.7128 28.5259C30.4232 28.9546 30.0905 29.3578 29.7242 29.7242C29.3579 30.0905 28.9546 30.4232 28.526 30.7128C28.0932 31.0052 27.6305 31.2562 27.1509 31.4591C26.1531 31.8812 25.093 32.0952 24 32.0952C22.907 32.0952 21.8469 31.8812 20.8491 31.4591C20.3694 31.2562 19.9068 31.0051 19.474 30.7128C19.0453 30.4232 18.6421 30.0905 18.2758 29.7242C17.9095 29.3578 17.5768 28.9546 17.2871 28.5259C16.9947 28.0932 16.7437 27.6305 16.5409 27.1509C16.1188 26.153 15.9048 25.093 15.9048 24C15.9048 22.907 16.1188 21.8469 16.5409 20.849C16.7437 20.3694 16.9949 19.9068 17.2871 19.474C17.5768 19.0453 17.9095 18.6421 18.2758 18.2758C18.6421 17.9094 19.0453 17.5768 19.474 17.2871C19.9068 16.9947 20.3694 16.7437 20.8491 16.5408C21.8469 16.1188 22.907 15.9048 24 15.9048ZM24 15.6121C19.3675 15.6121 15.6119 19.3675 15.6119 24.0001C15.6119 28.6328 19.3673 32.3882 24 32.3882C28.6327 32.3882 32.3881 28.6328 32.3881 24.0001C32.3881 19.3675 28.6327 15.6121 24 15.6121Z" fill="#4419BA"/>
    <path d="M28.1011 19.1467C27.6573 18.703 27.0692 18.4583 26.4436 18.4583H21.5556C20.93 18.4583 20.341 18.7038 19.8989 19.1476C19.4567 19.5921 19.2129 20.1823 19.2129 20.8104V21.5309C19.2129 22.4904 19.8141 23.3311 20.8215 23.7807L21.2237 23.9461V21.5662C21.2221 21.5539 21.2212 21.5424 21.2212 21.5302V20.8098C21.2212 20.6877 21.2833 20.6084 21.3199 20.5715C21.3566 20.5346 21.4356 20.4724 21.5564 20.4724H26.4443C26.5658 20.4724 26.6449 20.5339 26.6817 20.5715C26.7184 20.6084 26.7796 20.6877 26.7796 20.8089V22.3899H28.787V20.8098C28.787 20.1819 28.5432 19.5908 28.1011 19.147V19.1467Z" fill="white"/>
    <path d="M27.1702 24.216V24.2151L26.7762 24.053V26.4493C26.7778 26.455 26.7778 26.4616 26.7778 26.4674V27.1878C26.7778 27.3097 26.7167 27.3899 26.6792 27.4268C26.6425 27.4637 26.5634 27.5259 26.4427 27.5259H21.5556C21.3712 27.5259 21.2212 27.3744 21.2212 27.1903V25.6093H19.2129V27.1903C19.2129 28.487 20.2636 29.5415 21.5556 29.5415H26.4436C27.0692 29.5407 27.6582 29.296 28.1003 28.8522C28.5425 28.4077 28.7863 27.8166 28.7863 27.1885V26.4682C28.7863 25.4996 28.1826 24.6573 27.1704 24.216H27.1702Z" fill="white"/>
    <path d="M23.1366 24.867V24.8663C23.8381 25.5704 23.9997 26.4619 23.9997 26.4619C23.9997 26.4619 24.1049 25.888 24.5087 25.2977C24.6083 25.152 24.7249 25.0054 24.8635 24.8663C25.565 24.1621 26.4534 23.9992 26.4534 23.9992C26.4534 23.9992 25.7829 23.8764 25.1458 23.382C25.0504 23.3076 24.955 23.2257 24.8628 23.1331C24.1613 22.4291 23.999 21.5366 23.999 21.5366C23.999 21.5366 23.8954 22.1105 23.4916 22.7024C23.392 22.8481 23.2745 22.9946 23.1359 23.1338C22.4335 23.838 21.5453 24 21.5453 24C21.5453 24 22.2166 24.1228 22.8537 24.6172C22.9492 24.6925 23.0446 24.7743 23.1368 24.8668L23.1366 24.867Z" fill="white"/>
</svg>
